<?xml version="1.0" encoding="UTF-8"?>
<svg id="Capa_2" data-name="Capa 2" xmlns="http://www.w3.org/2000/svg" viewBox="0 0 749 249.4">
  <defs>
    <style>
      .cls-1 {
        fill: none;
        stroke: #333;
        stroke-miterlimit: 10;
      }
    </style>
  </defs>
  <g id="Capa_2-2" data-name="Capa 2">
    <g>
      <g>
        <path class="cls-1" d="m3.42,2.75h58.9c14.57,0,23.74,3.31,29.9,9.47,3.76,3.76,6.46,9.17,6.46,16.38v.3c0,12.47-7.51,20.14-18.78,24.04,2.25.65,4.37,1.39,6.34,2.25,1.97.86,3.79,1.82,5.44,2.92,10.88,7.28,17.18,22.57,9.98,34.26-4.5,6.3-10.8,9.9-17.63,11.77-3.01,1.21-6.37,2.16-10.09,2.8-3.72.65-7.8.99-12.23.99h-18.45c-3.42,0-7.06,0-10.7,0-6.47-.27-13.66-.27-20.04,0-5.47,0-9.11,0-9.11,0,0,0,0-2.92-.08-7.9C.01,73.48-.89,46.49,3.37,19.18c.05-3.27.05-6.2.05-8.63V2.75Zm60.7,33.81c0-2.33-.94-4.13-2.82-5.35-1.88-1.22-4.7-1.86-8.45-1.86-11.46-1.75-22.25,1.85-15.96,10.84,3.6,5.4,15.29,6.3,24.47,2,1.85-1.2,2.75-3.01,2.75-5.33v-.3Zm-9.23,28.52c-7.2-.6-13.5-2.4-20.69-2.4,0,5.4-.9,13.49,2.7,16.19,6.3,3.6,16.19,3.6,25.19.9,4.5-.9,6.3-8.1,1.87-11.99-1.93-1.41-4.91-2.37-9.06-2.7Z"/>
        <path class="cls-1" d="m109.79,2.75s3.91,0,9.33.1c11.33.45,27.52-.45,32.02,7.65,4.5,6.3-7.2,17.99-6.19,29.81-.17,2.53-.31,5.21-.37,7.95-.33,13.69,1.17,28.81,10.17,33.31,8.1,2.7,23.39-4.5,35.98-3.69,2.29,0,3.66,0,3.66,0,0,0,0,1.88,0,4.7-.06,7.99-.06,16.99-.06,25.09-5.4-.9-10.8,0-15.29,1.8-21.59,6.3-52.18,13.49-60.27-.9-8.1-15.29-10.8-43.18-8.96-66.23,0-2.14,0-4.24-.01-6.3V2.75Z"/>
        <path class="cls-1" d="m238.74,2.03s3.84-.02,9-.02h25.82l44.33,105.93s-4.24,0-9.88-.06c-11.13-2.01-27.32,6.08-31.01-7.04-1.45-3.5-2.84-7.03-2.84-7.03h-36.81s-1.35,3.53-2.6,7.09c-1.74,13.06-20.63,4.07-30.63,7.04-5.56,0-9.64,0-9.64,0,0,0,1.19-2.94,3.19-7.85,1.02-2.45,2.25-5.39,3.63-8.7,1.25-2.98,2.62-6.26,4.08-9.74,14.13-22.56,33.92-44.15,31.5-72.6,1.01-4.52,1.85-7.01,1.85-7.01Zm26.71,66.84s-.6-1.6-1.5-3.99c-.9-2.39-2.1-5.59-3.3-8.79-1.55-3.3-3.34-7.8-4.24-12.3-3.6,8.1-7.2,17.09-9.9,25.19,2.7,0,6.3,0,9.33-.12,4.81,0,9.62,0,9.62,0Z"/>
        <path class="cls-1" d="m313.08,55.64v-.3c0-31.4,24.49-54.84,55.89-54.84,23.14,0,38.77,11.27,47.63,27.35l-29,16.98c-3.91-7.51-9.47-12.77-19.08-12.77-11.87,0-19.68,10.37-19.68,22.99v.3c0,13.67,8.11,23.29,19.68,23.29,9.92,0,15.48-5.41,19.83-13.22l29,16.38c-8.87,15.63-23.59,28.4-49.73,28.4-29.15,0-54.54-21.94-54.54-54.54Z"/>
        <path class="cls-1" d="m424.11,2.75h35.16v19.68c.03,3.28.07,6.56.27,9.48-.72,3.77,1.08,6.47,1.08,10.07,5.4-6.3,9-13.49,13.66-19.55,1.22-1.64,2.46-3.28,3.65-4.88,6.06-7.97,11.25-14.81,11.25-14.81h40.87s-5.16,6.42-11.6,14.45c-2.15,2.68-4.44,5.53-6.73,8.39-6.11,7.4-11.51,17.3-7.91,23.59,1.35,2.55,2.62,5.1,3.84,7.65,1.22,2.55,2.38,5.11,3.52,7.68,7.03,15.26,16.03,29.65,26.82,43.15-11.7,0-24.29,1.8-36.24,1.47-2.28-.13-4.46-.42-6.53-.95-2.07-.52-4.01-1.27-5.81-2.32-7.2-4.5-4.5-24.29-12.59-27.89-7.2-2.7-17.99,7.2-16.94,18.79-.55,5.57-.61,11.17-.61,11.17h-35.16V2.75Z"/>
      </g>
      <g>
        <path class="cls-1" d="m3.42,126.52h36.66s5.63,9.24,11.27,18.48c1.87,3.09,3.74,6.18,5.44,8.98,1.7,3.16,4.4,6.75,6.2,10.35,4.5-6.3,6.3-13.49,10.9-19.33,1.89-3.09,3.77-6.17,5.44-8.91,3.34-5.48,5.84-9.58,5.84-9.58h9.5c2.72,0,5.77,0,8.84,0,7.16-.87,13.46.93,20.66.93-1.8,5.4-1.8,9.9-2.33,15.5,0,3.29,0,6.94,0,10.83v12.3c0,2.13,0,4.29.02,6.45.52,12.5,8.62,22.39,11.31,34.99.9,7.2,2.7,17.09-3.6,21.59-9.9,6.3-22.49,5.4-34.19,6.3,19.79-12.59,16.19-33.29.9-47.68,1.8,6.3,4.5,12.59.9,18.89-7.2,10.8-21.59,17.09-29.69,12.59-12.59-9-20.69-25.19-29.69-39.58,0,12.59,0,26.09.03,38.55,0,3.86,0,7.24,0,9.66v3.86H3.42v-105.18Z"/>
        <path class="cls-1" d="m131.62,179.18c-.26-3.14-.26-6.74.55-9.02.48-2.91,1.2-5.74,2.13-8.47.93-2.73,2.08-5.36,3.43-7.88,10.07-14.37,26.25-25.55,43.42-28.64,2.86-.51,5.75-.8,8.65-.84,23.42,2.22,51.31,7.62,66.61,25.61,9.9,10.8-9.9,23.39-10.88,38.11-.52,2.91-1.24,5.74-2.17,8.47-7.46,21.85-28.72,37.43-54.68,37.43-3.25,0-6.41-.24-9.49-.7s-6.06-1.15-8.93-2.04c-19.11-6.59-28.11-27.29-36.53-43.7-1.09-2.68-1.81-5.46-2.11-8.33Zm79.18.23c1.53-12.37-9.27-24.07-22.12-24.04-2.23,0-4.32.31-6.26.88-9.69,2.86-15.53,12.29-15.53,22.56v.3c0,12.47,8.56,23.74,22.09,23.74,11.14,0,18.84-7.72,21.1-17.43.45-1.94.69-3.96.72-6.01Z"/>
        <path class="cls-1" d="m270.43,125.41c20.16-1.55,40.85-1.55,59.95,4.36,2.07.69,3.99,1.49,5.76,2.38,3.54,1.78,6.49,3.93,8.95,6.39,6.31,6.31,9.62,14.12,9.62,24.94v.3c0,15.33-7.96,25.99-20.74,32.16l24.49,35.76h-40.12l-19.83-30.05h-7.51v30.05h-35.16v-39.56c0-2.13.05-4.29.24-6.47,3.03-18.63,29.12-32.13,19.34-53.02-2.78-4.56-4.98-7.24-4.98-7.24Zm35.79,51.1c4.16-.47,11.36-.47,13.16-6.77.9-4.5.9-9-2.7-11.7-6.3-3.6-14.39-5.4-18.89-2.7-4.5,4.5-3.6,13.49-6.3,20.69,2.7,0,4.5,0,7.43.37,3.6.06,7.3.1,7.3.1Z"/>
        <path class="cls-1" d="m363.26,126.52h32.91s5.26,6.53,11.84,14.69c2.19,2.72,4.53,5.62,6.86,8.52,7.07,6.51,8.87,15.5,10.67,23.6,2.7-8.1,5.4-15.29,7.74-23.6.29-3.87.31-7.74.31-11.18v-12.04h34.86v14.04c.28,20.18-21.31,27.38-26.71,45.37-.9,3.6,0,7.2,1.8,9.9,7.2,13.49,25.19,18.89,26.19,35.54.15,2.92.29,5.84.42,8.77.13,2.92.26,5.85.37,8.77-9.78,0-17.8-3.29-24.69-8.35-2.3-1.69-4.47-3.57-6.55-5.6-16.45-15.73-29.04-33.72-41.63-51.72,0,11.7-.9,24.29.47,35.89v12.58h-34.86v-105.18Z"/>
        <path class="cls-1" d="m480.76,126.52h35.17s-.01,2.92-.01,7.79c0,2.43,0,5.35-.05,8.63.53,15.1-6.66,28.59-6.66,42.99.9,12.59,7.2,24.29,6.7,37.97.01,4.88.01,7.8.01,7.8,0,0-3.91,0-9.13,0-9.28-.79-17.38,5.51-24.58,10-.15-2.7-.3-5.42-.44-8.16s-.38-5.49-.87-8.22c-4.09-13.3-18.48-19.6-27.48-30.4-4.5-6.3-1.8-13.49,2.7-17.99,11.7-10.8,26.09-22.49,24.63-39.16v-11.25Z"/>
        <path class="cls-1" d="m528.72,126.52c3.04.16,6.11.11,9.13.02,3.02-.09,6-.23,8.89-.25,26.34-3.33,38.04,26.36,51.53,43.45.9-15.29-7.2-34.19,2.7-44.98,4.5-4.5,15.29,0,23.33,1.36,5.24.38,9.11.4,9.11.4,0,0,0,2.92,0,7.79-.06,11.14-.06,21.03,0,31.77v65.62h-31.25s-15.26-18.96-26.71-33.18c-2.29-2.85-4.43-5.5-6.26-7.79-2.42-2.11-3.32-5.7-6.02-7.5,0,4.5,0,8.1-.09,12.52v35.95h-34.86v-7.79c0-2.43,0-5.36-.03-8.66-1.01-20.33-1.91-41.02-.06-61.49.08-3.88.08-7.53.08-10.81,0-2.47,0-4.72,0-6.73,0-2,.04-3.75.12-5.19.17-2.88.36-4.52.36-4.52Z"/>
        <path class="cls-1" d="m643.02,179.41v-.3c0-3.14.25-6.2.73-9.17,2.2-10.1,5.79-22.7,14.79-23.6,22.49-1.8,39.58-9.9,59.38-18.89,2.7-.9,4.5,0,7.59,1.07,2.45.9,4.8,1.95,7.06,3.13,4.52,2.36,8.68,5.23,12.48,8.54l-19.68,23.74c-1.73-1.47-3.5-2.77-5.34-3.89-12.91-6.5-30-2.9-39,8.79-3.6,5.4-3.6,11.7-1.72,18.06.56,2.18,1.37,4.22,2.41,6.08,4.16,7.44,12.04,11.98,21.86,11.98,6.01,0,9.31-.9,12.02-2.4v-10.52h-18.03v-3.52c0-2.11,0-4.93-.03-7.69-3.91-13.78,10.48-11.08,19.19-11.32,2.06,0,4.19,0,6.31,0h25.47v48.68c-11.42,9.31-27.35,15.78-46.43,15.78-32.76,0-59.05-21.94-59.05-54.54Z"/>
      </g>
    </g>
  </g>
</svg>