<?xml version="1.0" encoding="UTF-8"?>
<svg id="Capa_2" data-name="Capa 2" xmlns="http://www.w3.org/2000/svg" viewBox="0 0 324.75 324.75">
  <defs>
    <style>
      .cls-1 {
        fill: #ff478b;
        stroke-width: 0px;
      }
    </style>
  </defs>
  <g id="Capa_2-2" data-name="Capa 2">
    <path class="cls-1" d="m164.09,2v87.79c3.45,11.21,8.7,21.6,15.39,30.85,11.9-2.01,23.54-6.07,34.36-12.16l60.72-60.72,2.43,2.43-62.17,62.17c-5.5,10.28-9.19,21.25-11.07,32.45,9.89,7.07,21.06,12.49,33.12,15.86h85.87v3.43h-87.91c-11.32,3.42-21.81,8.67-31.16,15.39,1.86,11.36,5.56,22.49,11.14,32.92l62.17,62.17-2.43,2.43-60.72-60.72c-10.91-6.15-22.64-10.21-34.63-12.21-6.59,9.25-11.74,19.61-15.12,30.77v87.92h-3.43v-85.87c-3.34-11.97-8.7-23.06-15.69-32.9-11.28,1.81-22.33,5.45-32.7,10.93l-62.08,62.08-2.43-2.43,60.63-60.63c6.08-10.91,10.08-22.64,12.02-34.62-9.2-6.61-19.5-11.8-30.62-15.22H2v-3.43h85.75c11.85-3.38,22.83-8.74,32.58-15.7-1.97-11.81-5.94-23.37-11.93-34.14l-60.63-60.63,2.43-2.43,62.08,62.08c10.28,5.44,21.23,9.06,32.41,10.89,7.1-9.84,12.56-20.96,15.98-32.98V2h3.43m2-2h-7.43v87.47c-3.2,11.14-8.21,21.59-14.88,31.07-10.61-1.86-20.8-5.34-30.31-10.33l-61.86-61.86-1.41-1.41-1.41,1.41-2.43,2.43-1.41,1.41,1.41,1.41,60.43,60.43c5.53,9.99,9.35,20.76,11.36,32.02-9.39,6.54-19.7,11.45-30.67,14.61H0v7.43h89.49c10.26,3.19,19.92,7.94,28.74,14.13-1.99,11.43-5.83,22.35-11.45,32.5l-60.43,60.43-1.41,1.41,1.41,1.41,2.43,2.43,1.41,1.41,1.41-1.41,61.86-61.86c9.59-5.04,19.88-8.53,30.59-10.38,6.56,9.47,11.48,19.89,14.61,30.99v87.6h7.43v-89.62c3.15-10.3,7.87-20.01,14.03-28.88,11.44,2.04,22.37,5.95,32.5,11.63l60.53,60.53,1.41,1.41,1.41-1.41,2.43-2.43,1.41-1.41-1.41-1.41-61.96-61.96c-5.13-9.65-8.69-20.01-10.59-30.81,8.97-6.29,18.81-11.1,29.27-14.3h89.62v-7.43h-87.6c-11.18-3.15-21.67-8.12-31.21-14.76,1.92-10.63,5.45-20.83,10.5-30.34l61.95-61.96,1.41-1.41-1.41-1.41-2.43-2.43-1.41-1.41-1.41,1.41-60.53,60.53c-10.07,5.64-20.91,9.53-32.24,11.59-6.26-8.89-11.07-18.62-14.29-28.97V0h0Z"/>
  </g>
</svg>