<?xml version="1.0" encoding="UTF-8"?>
<svg id="Capa_2" data-name="Capa 2" xmlns="http://www.w3.org/2000/svg" viewBox="0 0 43.78 52.01">
  <defs>
    <style>
      .cls-1 {
        fill: #fbb91c;
        stroke-width: 0px;
      }
    </style>
  </defs>
  <g id="Capa_2-2" data-name="Capa 2">
    <g>
      <g>
        <path class="cls-1" d="m5.1,25.55c-.09-.15-.16-.33-.18-.56H0c.01,1.06.3,2.1.86,3.05,1.38,2.35,4.2,3.76,6.59,4.35v-5.16c-1.09-.44-1.98-1.06-2.34-1.68Z"/>
        <path class="cls-1" d="m32.23,26.03c3.12-2.68,4.82-6.14,5.07-10.31.23-3.89-.87-7.58-3.1-10.39,0-.01-.02-.02-.03-.04-1.04-1.3-2.29-2.37-3.72-3.2l-2.18,4.43c.79.5,1.48,1.11,2.06,1.84.12.15.24.31.35.48,1.25,1.8,1.85,4.11,1.7,6.58-.18,3.03-1.45,5.42-3.88,7.29-1.5-1.1-3.14-2.06-4.88-2.85-.3-.14-.61-.27-.92-.4,0,0-.01,0-.02,0-.28-.12-.56-.22-.84-.33l-1.72,4.61c.23.09.46.18.68.27.26.11.52.22.78.34.02,0,.04.02.06.03.75.34,1.47.72,2.17,1.14-3.67,1.71-7.71,2.61-11.46,2.54v4.91c5.23.07,10.89-1.41,15.74-4.12,2.15,2.15,3.32,4.75,4.3,7.55,3.19,0,5.13-1.66,5.13-1.66-1.12-3.21-2.94-6.17-5.3-8.7Z"/>
        <circle class="cls-1" cx="38.63" cy="46.86" r="5.15"/>
      </g>
      <path class="cls-1" d="m28.89,1.32c-5.15-2.18-11.12-1.63-15.23,1.41-5.2,3.84-6.28,10.54-6.36,14.98-3.69.77-6.11,2.53-6.97,5.15C.1,23.57,0,24.29,0,25h4.92c0-.17.01-.37.09-.61.22-.67,1.08-1.24,2.38-1.63.02,1.49.04,2.99.04,4.48v5.16c0,1.14-.02,7.16-.02,9.04,0,0,2.59.7,4.92,0,0-1.88.02-13.38.02-13.38,0-.94,0-1.88-.02-2.82h0s0-3.03,0-3.03c2.58.05,5.24.58,7.79,1.55l1.72-4.61c-3.13-1.18-6.42-1.82-9.61-1.86.12-3.41.97-8.09,4.35-10.59,2.69-1.99,6.87-2.32,10.39-.83.46.19.89.42,1.29.68l2.18-4.43c-.5-.29-1.02-.55-1.56-.78Z"/>
    </g>
  </g>
</svg>