<?xml version="1.0" encoding="UTF-8"?>
<svg id="Capa_2" data-name="Capa 2" xmlns="http://www.w3.org/2000/svg" viewBox="0 0 437.5 209.06">
  <defs>
    <style>
      .cls-1 {
        stroke-width: .5px;
      }

      .cls-1, .cls-2 {
        fill: none;
        stroke: #333;
        stroke-miterlimit: 10;
      }

      .cls-2 {
        stroke-width: .25px;
      }

      .cls-3 {
        fill: #333;
        stroke-width: 0px;
      }
    </style>
  </defs>
  <g id="Capa_2-2" data-name="Capa 2">
    <g>
      <g>
        <path class="cls-3" d="m.33,50.58l6.52-11.23c6.01,4.78,17.25,8.26,27.17,8.26,7.32,0,11.96-1.74,11.96-4.42,0-2.25-3.33-3.62-11.23-4.49l-9.57-1.09C8.8,35.87,1.78,31.3,1.78,22.1,1.78,10.94,14.38,4.64,32.86,4.64c10.94,0,21.23,2.61,27.61,6.74l-5.29,10.87c-5.65-3.77-14.2-6.16-22.17-6.09-7.39.07-12.83,1.81-12.9,4.56,0,1.96,2.9,3.19,9.56,3.84l9.64,1.01c17.54,1.81,25.07,6.59,25.07,16.01.07,10.73-12.25,18.04-31.3,18.04-12.46,0-25.8-3.7-32.75-9.06Z"/>
        <path class="cls-3" d="m67.5,39.42c0-12.03,11.88-19.93,30-19.93s30.07,7.9,30.07,19.93-11.88,19.85-30.07,19.85-30-7.83-30-19.85Zm42.9,0c0-5.94-5.07-9.85-12.9-9.85s-12.9,3.91-12.9,9.85,5.07,9.85,12.9,9.85,12.9-3.91,12.9-9.85Z"/>
        <path class="cls-3" d="m149.16,48.48h-.07l-2.25,9.64h-14.78V4.06h17.17v26.23h.07c2.9-6.52,10.87-10.8,20.22-10.8,13.33,0,22.03,7.9,22.03,19.93s-8.7,19.85-22.03,19.85c-9.42,0-17.46-4.2-20.36-10.8Zm25.22-9.06c0-5.15-5.07-8.55-12.9-8.55s-12.9,3.41-12.9,8.55,5.15,8.48,12.9,8.48,12.9-3.33,12.9-8.48Z"/>
        <path class="cls-3" d="m242.99,35.94l-15.65,3.04c-.29-5.58-2.75-9.13-6.3-9.13-4.86,0-7.75,4.49-7.75,11.59v16.67h-17.17V20.72h14.28l2.32,8.62h.07c2.75-6.09,8.84-9.86,15.58-9.86,8.33,0,14.06,6.45,14.64,16.45Z"/>
        <path class="cls-3" d="m245.09,39.35c0-11.67,12.1-19.86,29.42-19.86s28.26,7.9,28.26,19.93c0,1.09-.14,2.68-.51,3.91h-39.13c1.96,4.35,8.48,6.09,15.51,6.09,7.39,0,14.85-1.59,18.7-3.77l4.71,8.12c-5.07,3.26-14.64,5.51-24.64,5.51-19.28,0-32.32-7.75-32.32-19.93Zm40.43-3.33c-.22-4.28-5.14-7.17-11.16-7.17s-10.87,2.97-11.52,7.17h22.68Z"/>
        <path class="cls-3" d="m324.64,20.72h14.28l2.25,9.49h.07c3.41-6.59,10.43-10.73,18.99-10.73s14.42,4.2,16.52,10.87h.07c3.48-6.81,11.09-10.87,19.35-10.87,11.09,0,17.61,6.67,17.61,16.67v21.96h-17.17v-19.42c0-5.22-3.12-8.33-8.48-8.33-6.52,0-10.36,3.99-10.36,10.58v17.17h-17.1v-19.42c0-5.22-3.19-8.33-8.48-8.33-6.52,0-10.36,3.99-10.36,10.58v17.17h-17.17V20.72Z"/>
        <path class="cls-3" d="m418.26,8.33c0-4.93,3.99-8.33,9.49-8.33s9.49,3.41,9.49,8.33-3.99,8.41-9.49,8.41-9.49-3.48-9.49-8.41Zm.94,12.39h17.1v37.39h-17.1V20.72Z"/>
      </g>
      <g>
        <path class="cls-1" d="m.33,125.23l6.52-11.23c6.01,4.78,17.25,8.26,27.17,8.26,7.32,0,11.96-1.74,11.96-4.42,0-2.25-3.33-3.62-11.23-4.49l-9.57-1.09c-16.38-1.74-23.41-6.3-23.41-15.51,0-11.16,12.61-17.46,31.09-17.46,10.94,0,21.23,2.61,27.61,6.74l-5.29,10.87c-5.65-3.77-14.2-6.16-22.17-6.09-7.39.07-12.83,1.81-12.9,4.56,0,1.96,2.9,3.19,9.56,3.84l9.64,1.01c17.54,1.81,25.07,6.59,25.07,16.01.07,10.73-12.25,18.04-31.3,18.04-12.46,0-25.8-3.7-32.75-9.06Z"/>
        <path class="cls-1" d="m67.5,114.07c0-12.03,11.88-19.93,30-19.93s30.07,7.9,30.07,19.93-11.88,19.85-30.07,19.85-30-7.83-30-19.85Zm42.9,0c0-5.94-5.07-9.85-12.9-9.85s-12.9,3.91-12.9,9.85,5.07,9.85,12.9,9.85,12.9-3.91,12.9-9.85Z"/>
        <path class="cls-1" d="m149.16,123.13h-.07l-2.25,9.64h-14.78v-54.06h17.17v26.23h.07c2.9-6.52,10.87-10.8,20.22-10.8,13.33,0,22.03,7.9,22.03,19.93s-8.7,19.85-22.03,19.85c-9.42,0-17.46-4.2-20.36-10.8Zm25.22-9.06c0-5.15-5.07-8.55-12.9-8.55s-12.9,3.41-12.9,8.55,5.15,8.48,12.9,8.48,12.9-3.33,12.9-8.48Z"/>
        <path class="cls-1" d="m242.99,110.59l-15.65,3.04c-.29-5.58-2.75-9.13-6.3-9.13-4.86,0-7.75,4.49-7.75,11.59v16.67h-17.17v-37.39h14.28l2.32,8.62h.07c2.75-6.09,8.84-9.86,15.58-9.86,8.33,0,14.06,6.45,14.64,16.45Z"/>
        <path class="cls-1" d="m245.09,114c0-11.67,12.1-19.86,29.42-19.86s28.26,7.9,28.26,19.93c0,1.09-.14,2.68-.51,3.91h-39.13c1.96,4.35,8.48,6.09,15.51,6.09,7.39,0,14.85-1.59,18.7-3.77l4.71,8.12c-5.07,3.26-14.64,5.51-24.64,5.51-19.28,0-32.32-7.75-32.32-19.93Zm40.43-3.33c-.22-4.28-5.14-7.17-11.16-7.17s-10.87,2.97-11.52,7.17h22.68Z"/>
        <path class="cls-1" d="m324.64,95.37h14.28l2.25,9.49h.07c3.41-6.59,10.43-10.73,18.99-10.73s14.42,4.2,16.52,10.87h.07c3.48-6.81,11.09-10.87,19.35-10.87,11.09,0,17.61,6.67,17.61,16.67v21.96h-17.17v-19.42c0-5.22-3.12-8.33-8.48-8.33-6.52,0-10.36,3.99-10.36,10.58v17.17h-17.1v-19.42c0-5.22-3.19-8.33-8.48-8.33-6.52,0-10.36,3.99-10.36,10.58v17.17h-17.17v-37.39Z"/>
        <path class="cls-1" d="m418.26,82.98c0-4.93,3.99-8.33,9.49-8.33s9.49,3.41,9.49,8.33-3.99,8.41-9.49,8.41-9.49-3.48-9.49-8.41Zm.94,12.39h17.1v37.39h-17.1v-37.39Z"/>
      </g>
      <g>
        <path class="cls-2" d="m.33,199.88l6.52-11.23c6.01,4.78,17.25,8.26,27.17,8.26,7.32,0,11.96-1.74,11.96-4.42,0-2.25-3.33-3.62-11.23-4.49l-9.57-1.09c-16.38-1.74-23.41-6.3-23.41-15.51,0-11.16,12.61-17.46,31.09-17.46,10.94,0,21.23,2.61,27.61,6.74l-5.29,10.87c-5.65-3.77-14.2-6.16-22.17-6.09-7.39.07-12.83,1.81-12.9,4.56,0,1.96,2.9,3.19,9.56,3.84l9.64,1.01c17.54,1.81,25.07,6.59,25.07,16.01.07,10.73-12.25,18.04-31.3,18.04-12.46,0-25.8-3.7-32.75-9.06Z"/>
        <path class="cls-2" d="m67.5,188.72c0-12.03,11.88-19.93,30-19.93s30.07,7.9,30.07,19.93-11.88,19.85-30.07,19.85-30-7.83-30-19.85Zm42.9,0c0-5.94-5.07-9.85-12.9-9.85s-12.9,3.91-12.9,9.85,5.07,9.85,12.9,9.85,12.9-3.91,12.9-9.85Z"/>
        <path class="cls-2" d="m149.16,197.77h-.07l-2.25,9.64h-14.78v-54.06h17.17v26.23h.07c2.9-6.52,10.87-10.8,20.22-10.8,13.33,0,22.03,7.9,22.03,19.93s-8.7,19.85-22.03,19.85c-9.42,0-17.46-4.2-20.36-10.8Zm25.22-9.06c0-5.15-5.07-8.55-12.9-8.55s-12.9,3.41-12.9,8.55,5.15,8.48,12.9,8.48,12.9-3.33,12.9-8.48Z"/>
        <path class="cls-2" d="m242.99,185.24l-15.65,3.04c-.29-5.58-2.75-9.13-6.3-9.13-4.86,0-7.75,4.49-7.75,11.59v16.67h-17.17v-37.39h14.28l2.32,8.62h.07c2.75-6.09,8.84-9.86,15.58-9.86,8.33,0,14.06,6.45,14.64,16.45Z"/>
        <path class="cls-2" d="m245.09,188.64c0-11.67,12.1-19.86,29.42-19.86s28.26,7.9,28.26,19.93c0,1.09-.14,2.68-.51,3.91h-39.13c1.96,4.35,8.48,6.09,15.51,6.09,7.39,0,14.85-1.59,18.7-3.77l4.71,8.12c-5.07,3.26-14.64,5.51-24.64,5.51-19.28,0-32.32-7.75-32.32-19.93Zm40.43-3.33c-.22-4.28-5.14-7.17-11.16-7.17s-10.87,2.97-11.52,7.17h22.68Z"/>
        <path class="cls-2" d="m324.64,170.02h14.28l2.25,9.49h.07c3.41-6.59,10.43-10.73,18.99-10.73s14.42,4.2,16.52,10.87h.07c3.48-6.81,11.09-10.87,19.35-10.87,11.09,0,17.61,6.67,17.61,16.67v21.96h-17.17v-19.42c0-5.22-3.12-8.33-8.48-8.33-6.52,0-10.36,3.99-10.36,10.58v17.17h-17.1v-19.42c0-5.22-3.19-8.33-8.48-8.33-6.52,0-10.36,3.99-10.36,10.58v17.17h-17.17v-37.39Z"/>
        <path class="cls-2" d="m418.26,157.63c0-4.93,3.99-8.33,9.49-8.33s9.49,3.41,9.49,8.33-3.99,8.41-9.49,8.41-9.49-3.48-9.49-8.41Zm.94,12.39h17.1v37.39h-17.1v-37.39Z"/>
      </g>
    </g>
  </g>
</svg>